<?xml version="1.0" standalone="no"?>
<!DOCTYPE svg PUBLIC "-//W3C//DTD SVG 20010904//EN"
 "http://www.w3.org/TR/2001/REC-SVG-20010904/DTD/svg10.dtd">
<svg version="1.0" xmlns="http://www.w3.org/2000/svg"
 width="114.000000pt" height="114.000000pt" viewBox="0 0 114.000000 114.000000"
 preserveAspectRatio="xMidYMid meet">
<metadata>
Created by potrace 1.14, written by Peter Selinger 2001-2017
</metadata>
<g transform="translate(0.000000,114.000000) scale(0.100000,-0.100000)"
fill="#000000" stroke="none">
<path d="M744 665 c-64 -63 -122 -115 -129 -115 -7 0 -53 41 -103 90 -51 50
-96 90 -102 90 -6 0 -10 -70 -10 -199 l0 -199 26 -6 c40 -10 426 -5 447 6 15
8 17 29 17 228 0 185 -2 220 -14 220 -8 0 -67 -52 -132 -115z"/>
</g>
</svg>
